<?xml version="1.0" encoding="utf-8"?>
<!-- Generator: Adobe Illustrator 25.2.3, SVG Export Plug-In . SVG Version: 6.00 Build 0)  -->
<svg version="1.1" id="Layer_1" xmlns="http://www.w3.org/2000/svg" xmlns:xlink="http://www.w3.org/1999/xlink" x="0px" y="0px"
	 viewBox="0 0 847.2 100.7" style="enable-background:new 0 0 847.2 100.7;" xml:space="preserve">
<style type="text/css">
	.st0{fill:#1C1C1C;}
	.st1{display:none;fill:#1C1C1C;}
	.st2{fill:none;stroke:#1C1C1C;stroke-width:1.5;stroke-linecap:round;stroke-linejoin:round;}
</style>
<path class="st0" d="M43.5,99.9L23.1,26.4h-0.6v73.5H0.3V0.3h37.3l17.5,66.6h0.5L72.4,0.3h36.5v99.6h-24V26.4h-0.6L64,99.9H43.5z"/>
<path class="st0" d="M162.9,99.9c-27.9,0-49.2-20.3-49.2-49.8S135,0.3,162.9,0.3c28,0,49.4,20.3,49.4,49.8
	C212.2,79.7,190.9,99.9,162.9,99.9z M162.9,20.5c-15.5,0-25.4,11.7-25.4,29.6s9.9,29.6,25.4,29.6c15.7,0,25.6-11.7,25.6-29.6
	C188.5,32.3,178.6,20.5,162.9,20.5z"/>
<path class="st0" d="M265.7,99.9c-27.9,0-49.2-20.3-49.2-49.8s21.3-49.8,49.2-49.8c28,0,49.4,20.3,49.4,49.8
	C315.1,79.7,293.8,99.9,265.7,99.9z M265.7,20.6c-15.5,0-25.4,11.7-25.4,29.6s9.9,29.6,25.4,29.6c15.7,0,25.6-11.7,25.6-29.6
	S281.4,20.6,265.7,20.6z"/>
<path class="st0" d="M383.8,99.9l-30.5-41.3l-9.3,10v31.3h-24V0.3h24v42.2l38.4-42.2H410L370.7,43l41.9,56.9H383.8z"/>
<path class="st0" d="M440.4,0.3v99.6h-24V0.3H440.4z"/>
<path class="st0" d="M445.5,0.3h38.6c32.7,0,53,18.7,53,49.8s-20.2,49.8-53,49.8h-38.6V0.3z M482.5,81c18.8,0,29.7-11.4,29.7-31
	c0-19.3-10.9-30.7-29.7-30.7h-13V81H482.5z"/>
<path class="st1" d="M539.8,75.8h24.5v24.5h-24.5V75.8z"/>
<g id="Layer_2">
	<g>
		<path class="st2" d="M538.5,81.9l11.6-5.2l11.6,5.2l-11.6,5.2L538.5,81.9z"/>
		<path class="st2" d="M538.5,94.7l11.6,5.2l11.6-5.2"/>
		<path class="st2" d="M561.8,81.9v12.9"/>
		<path class="st2" d="M538.5,81.9v12.9"/>
		<path class="st2" d="M550.2,87.5v12.1"/>
	</g>
</g>
<path class="st0" d="M572.3,0.3h38.4c32.5,0,52.7,18.7,52.7,49.8s-20.1,49.8-52.7,49.8h-38.4V0.3z M609.1,81
	c18.7,0,29.6-11.4,29.6-31c0-19.3-10.8-30.7-29.6-30.7h-12.9V81H609.1z"/>
<path class="st0" d="M744.3,99.9h-76.4V0.3h75v19.8h-51.6v19.6h40.1v19.5h-40.1v21h53L744.3,99.9L744.3,99.9z"/>
<path class="st0" d="M783.5,99.9L745.2,0.3H770l26.6,70.1h0.6l26.3-70.1h23.7l-38.4,99.6C808.8,99.9,783.5,99.9,783.5,99.9z"/>
</svg>
