<svg version="1.1" id="Layer_1" xmlns="http://www.w3.org/2000/svg" xmlns:xlink="http://www.w3.org/1999/xlink" x="0px" y="0px" viewBox="0 0 537.11 100.68" style="enable-background:new 0 0 537.11 100.68;" xml:space="preserve">
	<path class="logo--mookid" d="M43.48,99.94L23.07,26.4h-0.63v73.54H0.3V0.31h37.32l17.55,66.58h0.47L72.42,0.31h36.53v99.63H84.91V26.4h-0.63 L64.03,99.94H43.48z"/>
	<path class="logo--mookid" d="M162.87,99.94c-27.89,0-49.22-20.27-49.22-49.83c0-29.56,21.33-49.83,49.22-49.83 c28.04,0,49.37,20.27,49.37,49.83C212.24,79.67,190.91,99.94,162.87,99.94z M162.87,20.54c-15.54,0-25.45,11.73-25.45,29.56 c0,17.83,9.9,29.56,25.45,29.56c15.7,0,25.6-11.73,25.6-29.56C188.47,32.28,178.57,20.54,162.87,20.54z"/>
	<path class="logo--mookid" d="M265.72,99.95c-27.89,0-49.22-20.27-49.22-49.83c0-29.56,21.33-49.83,49.22-49.83 c28.04,0,49.37,20.27,49.37,49.83C315.09,79.69,293.75,99.95,265.72,99.95z M265.72,20.56c-15.54,0-25.45,11.73-25.45,29.56 c0,17.83,9.9,29.56,25.45,29.56c15.7,0,25.6-11.73,25.6-29.56C291.32,32.29,281.41,20.56,265.72,20.56z"/>
	<path class="logo--mookid" d="M383.79,99.94l-30.52-41.27l-9.33,9.96v31.31H319.9V0.31h24.04v42.22l38.43-42.22h27.67l-39.38,42.7 l41.91,56.93H383.79z"/>
	<path class="logo--mookid" d="M440.42,0.31v99.63h-24.04V0.31H440.42z"/>
	<path class="logo--mookid" d="M445.55,0.31h38.59c32.74,0,52.98,18.66,52.98,49.81c0,31.15-20.24,49.81-52.98,49.81h-38.59V0.31z M482.55,80.96c18.82,0,29.73-11.39,29.73-31c0-19.29-10.91-30.68-29.73-30.68h-12.97v61.68H482.55z"/>
</svg>